<svg xmlns="http://www.w3.org/2000/svg" viewBox="0 0 88 72" width="88" height="72">
  <!-- 5-point solid black crown -->
  <path fill="#000" d="
    M6 32
    L6 24 L14 17 L22 22
    L30 9 L44 18
    L58 9 L66 22 L74 17 L82 24
    L82 32
    Z"/>
  <circle cx="14" cy="15" r="3" fill="#000"/>
  <circle cx="30" cy="7" r="2.8" fill="#000"/>
  <circle cx="44" cy="5" r="3.2" fill="#000"/>
  <circle cx="58" cy="7" r="2.8" fill="#000"/>
  <circle cx="74" cy="15" r="3" fill="#000"/>
  <!-- Curved banner at crown base -->
  <path fill="#000" d="
    M4 34
    C4 34 8 38 44 38
    C80 38 84 34 84 34
    L84 50
    C84 50 80 54 44 54
    C8 54 4 50 4 50
    Z"/>
  <text x="44" y="47" text-anchor="middle" fill="#fff"
        font-family="Georgia, 'Times New Roman', serif" font-size="13"
        font-weight="bold" font-style="italic">King's</text>
</svg>
