<svg xmlns="http://www.w3.org/2000/svg" viewBox="0 0 120 110" width="120" height="110">
  <!-- Crown base band -->
  <path fill="#000" d="M18 52 L22 38 L38 44 L60 28 L82 44 L98 38 L102 52 L102 58 L18 58 Z"/>
  <!-- Crown points with ball finials -->
  <circle cx="22" cy="36" r="3.5" fill="#000"/>
  <circle cx="38" cy="42" r="3" fill="#000"/>
  <circle cx="60" cy="26" r="4" fill="#000"/>
  <circle cx="82" cy="42" r="3" fill="#000"/>
  <circle cx="98" cy="36" r="3.5" fill="#000"/>
  <!-- Point peaks -->
  <path fill="#000" d="M18 52 L22 36 L26 52 Z"/>
  <path fill="#000" d="M34 52 L38 40 L42 52 Z"/>
  <path fill="#000" d="M54 52 L60 24 L66 52 Z"/>
  <path fill="#000" d="M78 52 L82 40 L86 52 Z"/>
  <path fill="#000" d="M94 52 L98 36 L102 52 Z"/>
  <!-- Curved banner -->
  <path fill="#000" d="M12 62 Q60 78 108 62 L108 88 Q60 98 12 88 Z"/>
  <!-- King's text -->
  <text x="60" y="82" text-anchor="middle" fill="#fff" font-family="Georgia, 'Times New Roman', serif" font-size="16" font-weight="bold" font-style="italic">King's</text>
</svg>
